<svg width="46" height="54" viewBox="0 0 46 54" fill="none" xmlns="http://www.w3.org/2000/svg">
<path d="M39.0856 52.9934C39.3581 53.3054 39.8319 53.3373 40.1439 53.0648L45.2272 48.6239C45.5392 48.3513 45.5711 47.8776 45.2986 47.5656C45.0261 47.2537 44.5523 47.2217 44.2404 47.4942L39.7218 51.4417L35.7743 46.9232C35.5018 46.6113 35.028 46.5793 34.7161 46.8518C34.4041 47.1244 34.3722 47.5981 34.6447 47.9101L39.0856 52.9934ZM0 1.75C15.6404 1.75 25.8897 5.20606 31.9752 13.1023C38.0952 21.0434 40.1686 33.6723 38.9021 52.4495L40.3987 52.5505C41.6693 33.7129 39.641 20.5918 33.1633 12.1866C26.6509 3.73653 15.8065 0.25 0 0.25V1.75Z" fill="#667185"/>
</svg>
