<svg width="64" height="27" viewBox="0 0 64 27" fill="none" xmlns="http://www.w3.org/2000/svg">
<path d="M8.172 25.5H2.628L0.18 0.299998H4.428L5.184 17.076L5.328 19.668H5.508L5.616 17.076L6.408 0.299998H10.62L8.172 25.5ZM18.821 0.299998V3.684H15.725V10.848H18.605V14.232H15.725V22.08H19.145V25.5H11.513V0.299998H18.821ZM31.2502 0.299998V25.5H26.1742L23.7982 9.696L23.3662 7.104L23.1862 7.14L23.4022 9.732L24.4102 25.5H20.1982V0.299998H25.2742L27.6142 15.456L28.0102 18.048L28.1902 18.012L28.0102 15.384L27.0382 0.299998H31.2502ZM42.8701 5.736V20.028C42.8701 21.876 42.3901 23.256 41.4301 24.168C40.4701 25.056 39.1741 25.5 37.5421 25.5H32.6101V0.299998H37.5421C39.1501 0.299998 40.4341 0.743998 41.3941 1.632C42.3781 2.496 42.8701 3.864 42.8701 5.736ZM38.6221 5.124C38.6221 4.62 38.5381 4.26 38.3701 4.044C38.2021 3.804 37.9261 3.684 37.5421 3.684H36.8221V22.08H37.5421C37.9261 22.08 38.2021 21.972 38.3701 21.756C38.5381 21.54 38.6221 21.156 38.6221 20.604V5.124ZM54.5822 0.299998V20.568C54.5822 22.416 54.1022 23.796 53.1422 24.708C52.2062 25.596 50.9462 26.04 49.3622 26.04C47.8022 26.04 46.5422 25.596 45.5822 24.708C44.6222 23.796 44.1422 22.416 44.1422 20.568V0.299998H48.3542V21.144C48.3542 21.672 48.4262 22.056 48.5702 22.296C48.7382 22.512 49.0022 22.62 49.3622 22.62C49.6982 22.62 49.9382 22.512 50.0822 22.296C50.2502 22.08 50.3342 21.696 50.3342 21.144V0.299998H54.5822ZM63.1949 0.299998V3.684H60.0989V10.848H62.9789V14.232H60.0989V22.08H63.5189V25.5H55.8869V0.299998H63.1949Z" fill="#00BA5C"/>
</svg>
