<svg width="349" height="258" viewBox="0 0 349 258" fill="none" xmlns="http://www.w3.org/2000/svg">
<g clip-path="url(#clip0_1201_20853)">
<rect width="349" height="258" rx="16" fill="white"/>
<g filter="url(#filter0_bd_1201_20853)">
<g clip-path="url(#clip1_1201_20853)">
<path d="M0 95C0 88.3726 5.37258 83 12 83H337C343.627 83 349 88.3726 349 95V287H0V95Z" fill="url(#paint0_radial_1201_20853)"/>
<g opacity="0.56">
<rect x="0.1" y="83.1" width="39.8" height="39.8" stroke="url(#paint1_linear_1201_20853)" stroke-opacity="0.24" stroke-width="0.2"/>
<rect x="40.1" y="83.1" width="39.8" height="39.8" stroke="url(#paint2_linear_1201_20853)" stroke-opacity="0.24" stroke-width="0.2"/>
<rect x="80.1" y="83.1" width="39.8" height="39.8" stroke="url(#paint3_linear_1201_20853)" stroke-opacity="0.24" stroke-width="0.2"/>
<rect x="120.1" y="83.1" width="39.8" height="39.8" stroke="url(#paint4_linear_1201_20853)" stroke-opacity="0.24" stroke-width="0.2"/>
<rect x="160.1" y="83.1" width="39.8" height="39.8" stroke="url(#paint5_linear_1201_20853)" stroke-opacity="0.24" stroke-width="0.2"/>
<rect x="200.1" y="83.1" width="39.8" height="39.8" stroke="url(#paint6_linear_1201_20853)" stroke-opacity="0.24" stroke-width="0.2"/>
<rect x="240.1" y="83.1" width="39.8" height="39.8" stroke="url(#paint7_linear_1201_20853)" stroke-opacity="0.24" stroke-width="0.2"/>
<rect x="280.1" y="83.1" width="39.8" height="39.8" stroke="url(#paint8_linear_1201_20853)" stroke-opacity="0.24" stroke-width="0.2"/>
<rect x="320.1" y="83.1" width="39.8" height="39.8" stroke="url(#paint9_linear_1201_20853)" stroke-opacity="0.24" stroke-width="0.2"/>
</g>
<g opacity="0.56">
<rect x="0.1" y="123.1" width="39.8" height="39.8" stroke="url(#paint10_linear_1201_20853)" stroke-opacity="0.24" stroke-width="0.2"/>
<rect x="40.1" y="123.1" width="39.8" height="39.8" stroke="url(#paint11_linear_1201_20853)" stroke-opacity="0.24" stroke-width="0.2"/>
<rect x="80.1" y="123.1" width="39.8" height="39.8" stroke="url(#paint12_linear_1201_20853)" stroke-opacity="0.24" stroke-width="0.2"/>
<rect x="120.1" y="123.1" width="39.8" height="39.8" stroke="url(#paint13_linear_1201_20853)" stroke-opacity="0.24" stroke-width="0.2"/>
<rect x="160.1" y="123.1" width="39.8" height="39.8" stroke="url(#paint14_linear_1201_20853)" stroke-opacity="0.24" stroke-width="0.2"/>
<rect x="200.1" y="123.1" width="39.8" height="39.8" stroke="url(#paint15_linear_1201_20853)" stroke-opacity="0.24" stroke-width="0.2"/>
<rect x="240.1" y="123.1" width="39.8" height="39.8" stroke="url(#paint16_linear_1201_20853)" stroke-opacity="0.24" stroke-width="0.2"/>
<rect x="280.1" y="123.1" width="39.8" height="39.8" stroke="url(#paint17_linear_1201_20853)" stroke-opacity="0.24" stroke-width="0.2"/>
<rect x="320.1" y="123.1" width="39.8" height="39.8" stroke="url(#paint18_linear_1201_20853)" stroke-opacity="0.24" stroke-width="0.2"/>
</g>
<g opacity="0.56">
<rect x="0.1" y="163.1" width="39.8" height="39.8" stroke="url(#paint19_linear_1201_20853)" stroke-opacity="0.24" stroke-width="0.2"/>
<rect x="40.1" y="163.1" width="39.8" height="39.8" stroke="url(#paint20_linear_1201_20853)" stroke-opacity="0.24" stroke-width="0.2"/>
<rect x="80.1" y="163.1" width="39.8" height="39.8" stroke="url(#paint21_linear_1201_20853)" stroke-opacity="0.24" stroke-width="0.2"/>
<rect x="120.1" y="163.1" width="39.8" height="39.8" stroke="url(#paint22_linear_1201_20853)" stroke-opacity="0.24" stroke-width="0.2"/>
<rect x="160.1" y="163.1" width="39.8" height="39.8" stroke="url(#paint23_linear_1201_20853)" stroke-opacity="0.24" stroke-width="0.2"/>
<rect x="200.1" y="163.1" width="39.8" height="39.8" stroke="url(#paint24_linear_1201_20853)" stroke-opacity="0.24" stroke-width="0.2"/>
<rect x="240.1" y="163.1" width="39.8" height="39.8" stroke="url(#paint25_linear_1201_20853)" stroke-opacity="0.24" stroke-width="0.2"/>
<rect x="280.1" y="163.1" width="39.8" height="39.8" stroke="url(#paint26_linear_1201_20853)" stroke-opacity="0.24" stroke-width="0.2"/>
<rect x="320.1" y="163.1" width="39.8" height="39.8" stroke="url(#paint27_linear_1201_20853)" stroke-opacity="0.24" stroke-width="0.2"/>
</g>
<path d="M81 143C81 136.373 86.3726 131 93 131H257C263.627 131 269 136.373 269 143V314H81V143Z" fill="url(#paint28_linear_1201_20853)"/>
<circle cx="94.5" cy="144.5" r="3.5" fill="#1FB515"/>
<circle cx="105.5" cy="144.5" r="3.5" fill="#1FB515"/>
<circle cx="116.5" cy="144.5" r="3.5" fill="#1FB515"/>
<circle cx="175" cy="215" r="28" fill="white"/>
<path d="M185.393 204.395C185.886 203.926 186.542 203.666 187.223 203.671C187.904 203.676 188.556 203.946 189.042 204.423C189.528 204.899 189.809 205.546 189.827 206.227C189.845 206.907 189.598 207.568 189.138 208.07L175.173 225.535C174.933 225.794 174.643 226.001 174.321 226.145C173.999 226.289 173.651 226.367 173.298 226.373C172.945 226.38 172.595 226.315 172.268 226.183C171.94 226.051 171.643 225.855 171.393 225.605L162.132 216.344C161.874 216.104 161.668 215.814 161.524 215.492C161.381 215.17 161.304 214.822 161.297 214.47C161.291 214.117 161.356 213.767 161.488 213.44C161.62 213.114 161.816 212.817 162.066 212.567C162.315 212.318 162.612 212.122 162.939 211.99C163.266 211.858 163.616 211.793 163.968 211.799C164.321 211.805 164.668 211.882 164.99 212.026C165.312 212.169 165.602 212.376 165.842 212.634L173.171 219.959L185.327 204.472L185.393 204.395Z" fill="#82D677"/>
</g>
</g>
</g>
<defs>
<filter id="filter0_bd_1201_20853" x="-204" y="-121" width="757" height="612" filterUnits="userSpaceOnUse" color-interpolation-filters="sRGB">
<feFlood flood-opacity="0" result="BackgroundImageFix"/>
<feGaussianBlur in="BackgroundImageFix" stdDeviation="102"/>
<feComposite in2="SourceAlpha" operator="in" result="effect1_backgroundBlur_1201_20853"/>
<feColorMatrix in="SourceAlpha" type="matrix" values="0 0 0 0 0 0 0 0 0 0 0 0 0 0 0 0 0 0 127 0" result="hardAlpha"/>
<feOffset dy="2"/>
<feGaussianBlur stdDeviation="12"/>
<feComposite in2="hardAlpha" operator="out"/>
<feColorMatrix type="matrix" values="0 0 0 0 0 0 0 0 0 0 0 0 0 0 0 0 0 0 0.08 0"/>
<feBlend mode="normal" in2="effect1_backgroundBlur_1201_20853" result="effect2_dropShadow_1201_20853"/>
<feBlend mode="normal" in="SourceGraphic" in2="effect2_dropShadow_1201_20853" result="shape"/>
</filter>
<radialGradient id="paint0_radial_1201_20853" cx="0" cy="0" r="1" gradientUnits="userSpaceOnUse" gradientTransform="translate(31.9136 243.5) rotate(-27.1202) scale(374.019 1611.27)">
<stop stop-color="#15B01B"/>
<stop offset="0.487702" stop-color="#26BA11"/>
<stop offset="1" stop-color="#BAFFAF"/>
</radialGradient>
<linearGradient id="paint1_linear_1201_20853" x1="0" y1="103" x2="40" y2="103" gradientUnits="userSpaceOnUse">
<stop stop-color="white" stop-opacity="0.82"/>
<stop offset="1" stop-color="white" stop-opacity="0.82"/>
</linearGradient>
<linearGradient id="paint2_linear_1201_20853" x1="40" y1="103" x2="80" y2="103" gradientUnits="userSpaceOnUse">
<stop stop-color="white" stop-opacity="0.82"/>
<stop offset="1" stop-color="white" stop-opacity="0.82"/>
</linearGradient>
<linearGradient id="paint3_linear_1201_20853" x1="80" y1="103" x2="120" y2="103" gradientUnits="userSpaceOnUse">
<stop stop-color="white" stop-opacity="0.82"/>
<stop offset="1" stop-color="white" stop-opacity="0.82"/>
</linearGradient>
<linearGradient id="paint4_linear_1201_20853" x1="120" y1="103" x2="160" y2="103" gradientUnits="userSpaceOnUse">
<stop stop-color="white" stop-opacity="0.82"/>
<stop offset="1" stop-color="white" stop-opacity="0.82"/>
</linearGradient>
<linearGradient id="paint5_linear_1201_20853" x1="160" y1="103" x2="200" y2="103" gradientUnits="userSpaceOnUse">
<stop stop-color="white" stop-opacity="0.82"/>
<stop offset="1" stop-color="white" stop-opacity="0.82"/>
</linearGradient>
<linearGradient id="paint6_linear_1201_20853" x1="200" y1="103" x2="240" y2="103" gradientUnits="userSpaceOnUse">
<stop stop-color="white" stop-opacity="0.82"/>
<stop offset="1" stop-color="white" stop-opacity="0.82"/>
</linearGradient>
<linearGradient id="paint7_linear_1201_20853" x1="240" y1="103" x2="280" y2="103" gradientUnits="userSpaceOnUse">
<stop stop-color="white" stop-opacity="0.82"/>
<stop offset="1" stop-color="white" stop-opacity="0.82"/>
</linearGradient>
<linearGradient id="paint8_linear_1201_20853" x1="280" y1="103" x2="320" y2="103" gradientUnits="userSpaceOnUse">
<stop stop-color="white" stop-opacity="0.82"/>
<stop offset="1" stop-color="white" stop-opacity="0.82"/>
</linearGradient>
<linearGradient id="paint9_linear_1201_20853" x1="320" y1="103" x2="360" y2="103" gradientUnits="userSpaceOnUse">
<stop stop-color="white" stop-opacity="0.82"/>
<stop offset="1" stop-color="white" stop-opacity="0.82"/>
</linearGradient>
<linearGradient id="paint10_linear_1201_20853" x1="0" y1="143" x2="40" y2="143" gradientUnits="userSpaceOnUse">
<stop stop-color="white" stop-opacity="0.82"/>
<stop offset="1" stop-color="white" stop-opacity="0.82"/>
</linearGradient>
<linearGradient id="paint11_linear_1201_20853" x1="40" y1="143" x2="80" y2="143" gradientUnits="userSpaceOnUse">
<stop stop-color="white" stop-opacity="0.82"/>
<stop offset="1" stop-color="white" stop-opacity="0.82"/>
</linearGradient>
<linearGradient id="paint12_linear_1201_20853" x1="80" y1="143" x2="120" y2="143" gradientUnits="userSpaceOnUse">
<stop stop-color="white" stop-opacity="0.82"/>
<stop offset="1" stop-color="white" stop-opacity="0.82"/>
</linearGradient>
<linearGradient id="paint13_linear_1201_20853" x1="120" y1="143" x2="160" y2="143" gradientUnits="userSpaceOnUse">
<stop stop-color="white" stop-opacity="0.82"/>
<stop offset="1" stop-color="white" stop-opacity="0.82"/>
</linearGradient>
<linearGradient id="paint14_linear_1201_20853" x1="160" y1="143" x2="200" y2="143" gradientUnits="userSpaceOnUse">
<stop stop-color="white" stop-opacity="0.82"/>
<stop offset="1" stop-color="white" stop-opacity="0.82"/>
</linearGradient>
<linearGradient id="paint15_linear_1201_20853" x1="200" y1="143" x2="240" y2="143" gradientUnits="userSpaceOnUse">
<stop stop-color="white" stop-opacity="0.82"/>
<stop offset="1" stop-color="white" stop-opacity="0.82"/>
</linearGradient>
<linearGradient id="paint16_linear_1201_20853" x1="240" y1="143" x2="280" y2="143" gradientUnits="userSpaceOnUse">
<stop stop-color="white" stop-opacity="0.82"/>
<stop offset="1" stop-color="white" stop-opacity="0.82"/>
</linearGradient>
<linearGradient id="paint17_linear_1201_20853" x1="280" y1="143" x2="320" y2="143" gradientUnits="userSpaceOnUse">
<stop stop-color="white" stop-opacity="0.82"/>
<stop offset="1" stop-color="white" stop-opacity="0.82"/>
</linearGradient>
<linearGradient id="paint18_linear_1201_20853" x1="320" y1="143" x2="360" y2="143" gradientUnits="userSpaceOnUse">
<stop stop-color="white" stop-opacity="0.82"/>
<stop offset="1" stop-color="white" stop-opacity="0.82"/>
</linearGradient>
<linearGradient id="paint19_linear_1201_20853" x1="0" y1="183" x2="40" y2="183" gradientUnits="userSpaceOnUse">
<stop stop-color="white" stop-opacity="0.82"/>
<stop offset="1" stop-color="white" stop-opacity="0.82"/>
</linearGradient>
<linearGradient id="paint20_linear_1201_20853" x1="40" y1="183" x2="80" y2="183" gradientUnits="userSpaceOnUse">
<stop stop-color="white" stop-opacity="0.82"/>
<stop offset="1" stop-color="white" stop-opacity="0.82"/>
</linearGradient>
<linearGradient id="paint21_linear_1201_20853" x1="80" y1="183" x2="120" y2="183" gradientUnits="userSpaceOnUse">
<stop stop-color="white" stop-opacity="0.82"/>
<stop offset="1" stop-color="white" stop-opacity="0.82"/>
</linearGradient>
<linearGradient id="paint22_linear_1201_20853" x1="120" y1="183" x2="160" y2="183" gradientUnits="userSpaceOnUse">
<stop stop-color="white" stop-opacity="0.82"/>
<stop offset="1" stop-color="white" stop-opacity="0.82"/>
</linearGradient>
<linearGradient id="paint23_linear_1201_20853" x1="160" y1="183" x2="200" y2="183" gradientUnits="userSpaceOnUse">
<stop stop-color="white" stop-opacity="0.82"/>
<stop offset="1" stop-color="white" stop-opacity="0.82"/>
</linearGradient>
<linearGradient id="paint24_linear_1201_20853" x1="200" y1="183" x2="240" y2="183" gradientUnits="userSpaceOnUse">
<stop stop-color="white" stop-opacity="0.82"/>
<stop offset="1" stop-color="white" stop-opacity="0.82"/>
</linearGradient>
<linearGradient id="paint25_linear_1201_20853" x1="240" y1="183" x2="280" y2="183" gradientUnits="userSpaceOnUse">
<stop stop-color="white" stop-opacity="0.82"/>
<stop offset="1" stop-color="white" stop-opacity="0.82"/>
</linearGradient>
<linearGradient id="paint26_linear_1201_20853" x1="280" y1="183" x2="320" y2="183" gradientUnits="userSpaceOnUse">
<stop stop-color="white" stop-opacity="0.82"/>
<stop offset="1" stop-color="white" stop-opacity="0.82"/>
</linearGradient>
<linearGradient id="paint27_linear_1201_20853" x1="320" y1="183" x2="360" y2="183" gradientUnits="userSpaceOnUse">
<stop stop-color="white" stop-opacity="0.82"/>
<stop offset="1" stop-color="white" stop-opacity="0.82"/>
</linearGradient>
<linearGradient id="paint28_linear_1201_20853" x1="175" y1="103.5" x2="175" y2="314" gradientUnits="userSpaceOnUse">
<stop stop-color="white" stop-opacity="0.36"/>
<stop offset="1" stop-color="white" stop-opacity="0.72"/>
</linearGradient>
<clipPath id="clip0_1201_20853">
<rect width="349" height="258" rx="16" fill="white"/>
</clipPath>
<clipPath id="clip1_1201_20853">
<path d="M0 95C0 88.3726 5.37258 83 12 83H337C343.627 83 349 88.3726 349 95V287H0V95Z" fill="white"/>
</clipPath>
</defs>
</svg>
