<svg width="43" height="54" viewBox="0 0 43 54" fill="none" xmlns="http://www.w3.org/2000/svg">
<path d="M35.1628 0.277979C34.764 0.165897 34.3499 0.398296 34.2378 0.797057L32.4113 7.29524C32.2992 7.69401 32.5316 8.10813 32.9304 8.22021C33.3292 8.33229 33.7433 8.09989 33.8554 7.70113L35.4789 1.92496L41.2551 3.54851C41.6538 3.66059 42.068 3.42819 42.18 3.02943C42.2921 2.63067 42.0597 2.21655 41.661 2.10447L35.1628 0.277979ZM0 53.75C17.7739 53.75 29.1501 44.831 34.8351 33.7165C40.4924 22.6563 40.5266 9.38708 35.6139 0.632957L34.3058 1.36704C38.9333 9.61292 38.9675 22.3437 33.4997 33.0335C28.0597 43.669 17.1859 52.25 0 52.25V53.75Z" fill="#667185"/>
</svg>
